<mxfile host="app.diagrams.net" modified="2022-05-26T10:34:00.831Z" agent="5.0 (Macintosh; Intel Mac OS X 10_15_7) AppleWebKit/537.36 (KHTML, like Gecko) Chrome/101.0.4951.64 Safari/537.36" etag="E8wEFFDFlVrZB5xOBayy" version="18.0.2" type="github">
  <diagram id="cDxOPvFd2UxCD3djQ5FR" name="第 1 页">
    <mxGraphModel dx="1018" dy="610" grid="1" gridSize="10" guides="1" tooltips="1" connect="1" arrows="1" fold="1" page="1" pageScale="1" pageWidth="827" pageHeight="1169" math="0" shadow="0">
      <root>
        <mxCell id="0" />
        <mxCell id="1" parent="0" />
        <mxCell id="xxE_Reb8qWEBoP0XGFVw-26" value="Pool" style="swimlane;childLayout=stackLayout;resizeParent=1;resizeParentMax=0;startSize=20;" vertex="1" parent="1">
          <mxGeometry x="230" y="70" width="360" height="480" as="geometry" />
        </mxCell>
        <mxCell id="xxE_Reb8qWEBoP0XGFVw-27" value="Lane 1" style="swimlane;startSize=20;" vertex="1" parent="xxE_Reb8qWEBoP0XGFVw-26">
          <mxGeometry y="20" width="120" height="460" as="geometry" />
        </mxCell>
        <mxCell id="xxE_Reb8qWEBoP0XGFVw-28" value="Lane 2" style="swimlane;startSize=20;" vertex="1" parent="xxE_Reb8qWEBoP0XGFVw-26">
          <mxGeometry x="120" y="20" width="120" height="460" as="geometry" />
        </mxCell>
        <mxCell id="xxE_Reb8qWEBoP0XGFVw-29" value="Lane 3" style="swimlane;startSize=20;" vertex="1" parent="xxE_Reb8qWEBoP0XGFVw-26">
          <mxGeometry x="240" y="20" width="120" height="460" as="geometry" />
        </mxCell>
      </root>
    </mxGraphModel>
  </diagram>
</mxfile>
